<svg xmlns="http://www.w3.org/2000/svg" xmlns:xlink="http://www.w3.org/1999/xlink" width="500" zoomAndPan="magnify" viewBox="0 0 375 374.999991" height="500" preserveAspectRatio="xMidYMid meet" version="1.0"><defs><g/><clipPath id="id1"><path d="M 6 9 L 375 9 L 375 367 L 6 367 Z M 6 9 " clip-rule="nonzero"/></clipPath><clipPath id="id2"><path d="M -56.066406 114.472656 L 368.082031 8.25 L 431.308594 260.703125 L 7.15625 366.925781 Z M -56.066406 114.472656 " clip-rule="nonzero"/></clipPath><clipPath id="id3"><path d="M -56.066406 114.472656 L 368.082031 8.25 L 431.308594 260.703125 L 7.15625 366.925781 Z M -56.066406 114.472656 " clip-rule="nonzero"/></clipPath></defs><g clip-path="url(#id1)"><g clip-path="url(#id2)"><g clip-path="url(#id3)"><path fill="#f4ca27" d="M 7.097656 366.6875 C 7.097656 366.6875 -9.863281 266.316406 178.125 176.625 C 366.113281 86.929688 365.902344 9.050781 365.902344 9.050781 C 365.902344 9.050781 414.550781 82.449219 283.363281 178.902344 C 152.175781 275.351562 39.992188 252.023438 7.097656 366.6875 " fill-opacity="1" fill-rule="nonzero"/></g></g></g><g fill="#141414" fill-opacity="1"><g transform="translate(185.28307, 360.319712)"><g><path d="M 55.65625 -3.078125 L 57.1875 -3.078125 L 57.1875 0 L 13.84375 0 L 13.84375 -3.078125 L 15.375 -3.078125 C 16.8125 -3.078125 18.144531 -3.691406 19.375 -4.921875 C 20.601562 -6.148438 21.675781 -7.582031 22.59375 -9.21875 C 23.519531 -10.863281 24.1875 -12.660156 24.59375 -14.609375 C 25.007812 -16.554688 25.21875 -18.347656 25.21875 -19.984375 L 25.21875 -183.890625 C 25.21875 -185.316406 25.007812 -186.953125 24.59375 -188.796875 C 24.1875 -190.648438 23.519531 -192.394531 22.59375 -194.03125 C 21.675781 -195.675781 20.601562 -197.0625 19.375 -198.1875 C 18.144531 -199.3125 16.8125 -199.875 15.375 -199.875 L 13.84375 -199.875 L 13.84375 -202.953125 L 67.34375 -202.953125 C 87.84375 -202.953125 103.675781 -198.953125 114.84375 -190.953125 C 126.019531 -182.960938 131.609375 -171.175781 131.609375 -155.59375 C 131.609375 -147.800781 130.328125 -140.984375 127.765625 -135.140625 C 125.203125 -129.296875 121.765625 -124.273438 117.453125 -120.078125 C 113.148438 -115.878906 108.078125 -112.5 102.234375 -109.9375 C 96.398438 -107.375 90.203125 -105.476562 83.640625 -104.25 L 105.78125 -70.421875 C 111.113281 -62.222656 116.546875 -54.175781 122.078125 -46.28125 C 127.609375 -38.382812 133.039062 -30.234375 138.375 -21.828125 C 139.8125 -19.773438 141.398438 -17.625 143.140625 -15.375 C 144.878906 -13.125 146.722656 -11.070312 148.671875 -9.21875 C 150.617188 -7.375 152.671875 -5.890625 154.828125 -4.765625 C 156.984375 -3.640625 159.1875 -3.078125 161.4375 -3.078125 L 161.4375 0 L 148.21875 0 C 140.019531 0 133.304688 -2 128.078125 -6 C 122.847656 -10 118.488281 -14.660156 115 -19.984375 C 105.78125 -33.515625 96.609375 -47.25 87.484375 -61.1875 C 78.359375 -75.132812 69.285156 -88.867188 60.265625 -102.390625 C 58.015625 -102.597656 55.609375 -102.851562 53.046875 -103.15625 C 50.484375 -103.46875 48.070312 -103.832031 45.8125 -104.25 L 45.8125 -19.984375 C 45.8125 -18.347656 46.015625 -16.554688 46.421875 -14.609375 C 46.835938 -12.660156 47.503906 -10.863281 48.421875 -9.21875 C 49.347656 -7.582031 50.375 -6.148438 51.5 -4.921875 C 52.632812 -3.691406 54.019531 -3.078125 55.65625 -3.078125 Z M 45.8125 -192.5 L 45.8125 -114.390625 L 47.359375 -114.390625 C 48.992188 -114.179688 51.601562 -114.023438 55.1875 -113.921875 C 58.78125 -113.828125 63.242188 -113.78125 68.578125 -113.78125 C 72.878906 -113.78125 77.4375 -114.441406 82.25 -115.765625 C 87.070312 -117.097656 91.582031 -119.351562 95.78125 -122.53125 C 99.988281 -125.71875 103.472656 -129.875 106.234375 -135 C 109.003906 -140.125 110.390625 -146.578125 110.390625 -154.359375 C 110.390625 -162.148438 108.898438 -168.503906 105.921875 -173.421875 C 102.953125 -178.347656 98.851562 -182.242188 93.625 -185.109375 C 88.40625 -187.984375 82.101562 -189.929688 74.71875 -190.953125 C 67.34375 -191.984375 59.25 -192.5 50.4375 -192.5 Z M 45.8125 -192.5 "/></g></g></g><g fill="#141414" fill-opacity="1"><g transform="translate(23.769079, 229.520368)"><g><path d="M 46.125 -3.078125 L 47.65625 -3.078125 L 47.65625 0 L 13.53125 0 L 13.53125 -3.078125 L 15.0625 -3.078125 C 16.5 -3.078125 17.882812 -3.691406 19.21875 -4.921875 C 20.550781 -6.148438 21.625 -7.582031 22.4375 -9.21875 C 23.257812 -10.863281 23.925781 -12.660156 24.4375 -14.609375 C 24.957031 -16.554688 25.21875 -18.347656 25.21875 -19.984375 L 25.21875 -183.890625 C 25.21875 -185.316406 25.0625 -186.953125 24.75 -188.796875 C 24.445312 -190.648438 23.882812 -192.394531 23.0625 -194.03125 C 22.238281 -195.675781 21.109375 -197.0625 19.671875 -198.1875 C 18.242188 -199.3125 16.503906 -199.875 14.453125 -199.875 L 12.921875 -199.875 L 12.921875 -202.953125 L 43.96875 -202.953125 L 155.59375 -27.0625 L 155.59375 -183.890625 C 155.59375 -185.316406 155.335938 -186.953125 154.828125 -188.796875 C 154.316406 -190.648438 153.597656 -192.394531 152.671875 -194.03125 C 151.753906 -195.675781 150.675781 -197.0625 149.4375 -198.1875 C 148.207031 -199.3125 146.773438 -199.875 145.140625 -199.875 L 143.609375 -199.875 L 143.609375 -202.953125 L 178.046875 -202.953125 L 178.046875 -199.875 L 176.5 -199.875 C 174.863281 -199.875 173.429688 -199.3125 172.203125 -198.1875 C 170.972656 -197.0625 169.894531 -195.675781 168.96875 -194.03125 C 168.050781 -192.394531 167.382812 -190.648438 166.96875 -188.796875 C 166.5625 -186.953125 166.359375 -185.316406 166.359375 -183.890625 L 166.359375 0 L 147.296875 0 L 35.984375 -176.5 L 35.984375 -19.984375 C 35.984375 -18.347656 36.1875 -16.554688 36.59375 -14.609375 C 37 -12.660156 37.660156 -10.863281 38.578125 -9.21875 C 39.503906 -7.582031 40.582031 -6.148438 41.8125 -4.921875 C 43.050781 -3.691406 44.488281 -3.078125 46.125 -3.078125 Z M 46.125 -3.078125 "/></g></g></g></svg>